<?xml version="1.0" encoding="UTF-8" standalone="no"?>
<!-- Created with Inkscape (http://www.inkscape.org/) -->

<svg
   xmlns:dc="http://purl.org/dc/elements/1.1/"
   xmlns:cc="http://creativecommons.org/ns#"
   xmlns:rdf="http://www.w3.org/1999/02/22-rdf-syntax-ns#"
   xmlns:svg="http://www.w3.org/2000/svg"
   xmlns="http://www.w3.org/2000/svg"
   xmlns:sodipodi="http://sodipodi.sourceforge.net/DTD/sodipodi-0.dtd"
   xmlns:inkscape="http://www.inkscape.org/namespaces/inkscape"
   width="1024"
   height="1182.283"
   viewBox="0 0 1024 1182.283"
   id="svg2"
   version="1.1"
   inkscape:version="0.91 r13725"
   sodipodi:docname="logo.svg">
  <defs
     id="defs4" />
  <sodipodi:namedview
     id="base"
     pagecolor="#ffffff"
     bordercolor="#666666"
     borderopacity="1.0"
     inkscape:pageopacity="0.0"
     inkscape:pageshadow="2"
     inkscape:zoom="0.24748737"
     inkscape:cx="-34.757169"
     inkscape:cy="411.33984"
     inkscape:document-units="px"
     inkscape:current-layer="layer1"
     showgrid="false"
     inkscape:window-width="1366"
     inkscape:window-height="705"
     inkscape:window-x="1432"
     inkscape:window-y="164"
     inkscape:window-maximized="1"
     units="px" />
  <metadata
     id="metadata7">
    <rdf:RDF>
      <cc:Work
         rdf:about="">
        <dc:format>image/svg+xml</dc:format>
        <dc:type
           rdf:resource="http://purl.org/dc/dcmitype/StillImage" />
        <dc:title></dc:title>
      </cc:Work>
    </rdf:RDF>
  </metadata>
  <g
     inkscape:label="Layer 1"
     inkscape:groupmode="layer"
     id="layer1"
     transform="translate(0,129.92088)">
    <g
       id="g4205">
      <path
         transform="matrix(0,4.6777808,-4.6777808,0,638.56845,69.023019)"
         style="opacity:1;fill:#535353;fill-opacity:1;stroke:none;stroke-width:1;stroke-linecap:round;stroke-linejoin:round;stroke-miterlimit:4;stroke-dasharray:none;stroke-dashoffset:133.33000183;stroke-opacity:1"
         d="M 147.00782,136.51098 20.635633,136.48681 -42.529531,27.033203 20.677495,-82.39624 147.04968,-82.372072 210.21485,27.08154 Z"
         id="path4187" />
      <g
         style="fill:#b4b3b3;fill-opacity:1;stroke:#535353;stroke-opacity:1"
         transform="matrix(-12.608474,0,0,12.608474,914.27887,59.519534)"
         id="g4171">
        <g
           style="fill:#b4b3b3;fill-opacity:1;stroke:#535353;stroke-opacity:1"
           id="row_4">
          <g
             style="fill:#b4b3b3;fill-opacity:1;stroke:#535353;stroke-opacity:1"
             id="teamwork">
            <path
               style="fill:#b4b3b3;fill-opacity:1;stroke:#535353;stroke-opacity:1"
               inkscape:connector-curvature="0"
               d="m 56.7,39.3 c 0.1,-0.1 0.3,-0.2 0.4,-0.2 0.6,-0.2 1.2,-0.2 1.8,0.1 0.7,0.3 1.2,1.1 1.2,1.8 0,0.9 -0.3,1.5 -0.9,2 -0.1,0 -0.1,0.1 -0.2,0.1 -1.8,1.2 -3.6,2.2 -5.5,3.2 1.9,-0.4 3.8,-0.9 5.4,-1.9 0.5,-0.3 1.1,-0.4 1.7,-0.2 0.9,0.3 1.4,1.3 1.3,2.2 0,0.2 -0.1,0.4 -0.2,0.6 -0.1,0.3 -0.3,0.5 -0.6,0.7 -3.9,2.6 -8.7,4.1 -13.5,5 -2,0.4 -4,0.5 -6,0.4 -2.8,-0.2 -5.5,0 -8.2,0.3 C 28,54 19.2,56.4 12.2,59 7.6,55.6 4,51.2 1.6,46 4,45.7 7.8,45.6 10,45.3 c 3,-0.5 5.9,-1 8.8,-1.5 7.3,-1.4 13.8,-5.8 17.9,-12 0.7,0.9 1.4,1.8 2,2.7 4.6,-2.4 9.6,-4.1 14.7,-5.3 0.1,0 0.1,0 0.2,0 0.5,-0.1 1.1,0 1.7,0.4 0.6,0.5 0.9,1.2 0.9,1.9 0,0.7 -0.4,1.2 -0.8,1.6 -0.1,0.1 -0.2,0.2 -0.3,0.2 -2.4,1.5 -4.8,2.7 -7.3,3.9 2.9,-0.9 5.6,-1.7 8.3,-3.1 0.6,-0.3 1.3,-0.4 2,0 0.7,0.3 1.1,1.1 1.2,1.8 0.1,0.8 -0.3,1.5 -0.9,2 -0.1,0.1 -0.2,0.1 -0.3,0.2 -2.6,1.6 -5.3,3.2 -8.1,4.5 2.3,-1.1 4.6,-2 6.7,-3.3 z"
               id="path4144" />
            <path
               style="fill:#b4b3b3;fill-opacity:1;stroke:#535353;stroke-opacity:1"
               inkscape:connector-curvature="0"
               d="m 38.6,53.3 c 0.1,0.5 -0.1,1 -0.5,1.4 -0.6,0.7 -1.7,0.9 -2.5,0.5 -0.5,-0.3 -0.8,-0.8 -1,-1.4 -0.4,-1.9 -1.3,-3.6 -2.2,-5.4 0.5,2.1 0.9,4.2 1.3,6.3 0,0.1 0,0.1 0,0.2 0.1,0.7 -0.2,1.5 -0.9,2 -0.6,0.5 -1.5,0.6 -2.2,0.3 -0.6,-0.3 -1.1,-0.8 -1.3,-1.3 -0.1,-0.2 -0.1,-0.3 -0.1,-0.5 -0.5,-2.5 -1.3,-4.8 -2.2,-7.2 0.9,3 1.4,6.1 2,9.1 0,0.1 0,0.2 0.1,0.3 0,0.7 -0.2,1.4 -0.9,2 -0.6,0.5 -1.4,0.6 -2.1,0.3 -0.7,-0.3 -1.2,-0.9 -1.3,-1.6 -0.7,-3 -1.9,-5.6 -3.2,-8.4 0.8,2.7 1.4,5.3 1.9,8.1 0,0.1 0,0.3 0.1,0.4 0,0.6 -0.2,1.2 -0.6,1.7 -0.4,0.4 -1,0.7 -1.7,0.6 -0.1,0 -0.2,0 -0.3,0 -0.7,-0.1 -1.1,-0.5 -1.4,-1 0,-0.1 -0.1,-0.1 -0.1,-0.2 -2.6,-4.8 -4.7,-9.9 -6,-15.2 -1,0.2 -2.1,0.4 -3.1,0.5 1.8,-7.2 0.8,-14.9 -3,-21.4 C 5.8,20.7 4.2,18.1 2.6,15.5 5,11.2 8.3,7.5 12.2,4.6 c 3.1,7.3 8.3,18 12.1,23.5 1.6,2.3 3.2,4.5 5.2,6.5 1.4,1.5 2.7,3.1 3.7,4.8 2.6,4.5 4.7,9.2 5.4,13.9 z"
               id="path4146" />
            <path
               style="fill:#b4b3b3;fill-opacity:1;stroke:#535353;stroke-opacity:1"
               inkscape:connector-curvature="0"
               d="m 62.2,17.5 c -2.4,0.3 -6,1 -8.2,1.3 -2.9,0.5 -5.8,1 -8.7,1.5 -7.3,1.4 -13.8,5.8 -17.9,12.1 -0.7,-0.9 -1.4,-1.8 -2,-2.7 -4.6,2.3 -9.6,4.1 -14.7,5.2 -0.1,0 -0.1,0 -0.2,0 C 10,35 9.4,34.9 8.8,34.5 8.2,34 7.9,33.3 7.9,32.6 8,32 8.3,31.4 8.8,31 8.9,30.9 9,30.9 9.1,30.8 c 2.4,-1.4 4.8,-2.7 7.3,-3.9 -2.9,0.9 -5.6,1.7 -8.3,3.1 -0.6,0.3 -1.3,0.4 -2,0 C 5.4,29.7 5,29 4.9,28.2 4.8,27.4 5.2,26.7 5.8,26.2 5.9,26.1 6,26.1 6.1,26 8.7,24.4 11.4,22.8 14.2,21.5 11.9,22.4 9.6,23.3 7.4,24.6 7.3,24.7 7.1,24.8 7,24.8 6.4,25 5.8,25 5.2,24.7 4.5,24.3 4,23.6 4,22.8 4,22 4.3,21.3 4.9,20.8 5,20.8 5,20.7 5.1,20.7 6.9,19.5 8.8,18.5 10.6,17.5 8.7,17.9 6.8,18.4 5.2,19.4 4.7,19.7 4.1,19.8 3.5,19.6 2.6,19.3 2.1,18.4 2.2,17.4 2.2,17.2 2.3,17 2.4,16.8 2.5,16.5 2.7,16.3 3,16.1 c 3.9,-2.6 8.7,-4.1 13.5,-5 2,-0.4 4,-0.5 6,-0.4 2.8,0.2 5.5,0 8.2,-0.3 5.5,-0.7 14.2,-3.1 21,-5.7 4.5,3.5 8.1,7.8 10.5,12.8 z"
               id="path4148" />
            <g
               style="fill:#b4b3b3;fill-opacity:1;stroke:#535353;stroke-opacity:1"
               id="g4150">
              <path
                 style="fill:#b4b3b3;fill-opacity:1;stroke:#535353;stroke-opacity:1"
                 inkscape:connector-curvature="0"
                 d="m 59,44.4 c -0.2,-0.3 -0.4,-0.6 -0.6,-0.9 -1.6,1 -3.2,2 -4.9,2.8 1.9,-0.4 3.8,-0.9 5.5,-1.9 0,0 0,0 0,0 z"
                 id="path4152" />
              <path
                 style="fill:#b4b3b3;fill-opacity:1;stroke:#535353;stroke-opacity:1"
                 inkscape:connector-curvature="0"
                 d="M 55.9,39.1 C 54,40.3 52,41.4 50,42.4 52.1,41.6 54.2,40.8 56.2,39.6 56.1,39.5 56,39.3 55.9,39.1 Z"
                 id="path4154" />
              <path
                 style="fill:#b4b3b3;fill-opacity:1;stroke:#535353;stroke-opacity:1"
                 inkscape:connector-curvature="0"
                 d="m 54,34.8 c -0.1,-0.3 -0.2,-0.6 -0.3,-1 -2,1.2 -4,2.2 -6.1,3.2 2.2,-0.6 4.4,-1.3 6.4,-2.2 z"
                 id="path4156" />
              <path
                 style="fill:#b4b3b3;fill-opacity:1;stroke:#535353;stroke-opacity:1"
                 inkscape:connector-curvature="0"
                 d="m 30.7,24.3 c 1,1.8 2.3,3.4 3.7,4.8 1.6,1.6 3,3.4 4.3,5.2 4.5,-2.3 9.2,-3.9 14.1,-5.1 -0.4,-3.4 -0.2,-6.9 0.7,-10.3 -1,0.2 -2.1,0.3 -3.1,0.5 C 49,14.1 47,9.1 44.4,4.2 44.4,4.1 44.3,4.1 44.3,4 44,3.5 43.6,3.1 42.9,3 c -0.1,0 -0.3,0 -0.4,0 -0.6,0 -1.2,0.2 -1.6,0.6 -0.5,0.5 -0.7,1.1 -0.6,1.7 0,0.1 0,0.3 0,0.4 0.5,2.8 1.2,5.4 2,8.1 C 41.1,11 39.8,8.4 39.1,5.4 38.9,4.7 38.5,4.1 37.8,3.8 37.1,3.5 36.3,3.6 35.7,4.1 c -0.7,0.5 -0.9,1.3 -0.9,2 0,0.1 0,0.2 0.1,0.3 0.6,3.1 1.1,6.1 2,9.1 C 36,13.2 35.1,10.8 34.7,8.3 34.7,8.1 34.7,8 34.6,7.8 34.4,7.2 34,6.7 33.3,6.5 32.5,6.4 31.7,6.5 31,7 c -0.6,0.5 -0.9,1.3 -0.8,2 0,0.1 0,0.1 0,0.2 0.3,2.1 0.8,4.2 1.3,6.3 C 30.6,13.8 29.7,12 29.3,10.1 29.2,9.6 28.9,9 28.3,8.7 27.5,8.2 26.4,8.4 25.8,9.2 c -0.3,0.4 -0.5,0.9 -0.5,1.4 0.8,4.8 2.9,9.5 5.4,13.7 z"
                 id="path4158" />
              <path
                 style="fill:#b4b3b3;fill-opacity:1;stroke:#535353;stroke-opacity:1"
                 inkscape:connector-curvature="0"
                 d="m 49,52.4 c 1.1,2.3 2.2,4.5 3,6.4 3.8,-2.9 7,-6.5 9.3,-10.7 -0.1,-0.1 -0.2,-0.3 -0.3,-0.4 -3.4,2.4 -7.7,3.8 -12,4.7 z"
                 id="path4160" />
            </g>
          </g>
        </g>
        <g
           style="fill:#b4b3b3;fill-opacity:1;stroke:#535353;stroke-opacity:1"
           id="row_3" />
        <g
           style="fill:#b4b3b3;fill-opacity:1;stroke:#535353;stroke-opacity:1"
           id="row_2" />
        <g
           style="fill:#b4b3b3;fill-opacity:1;stroke:#535353;stroke-opacity:1"
           id="row_1" />
      </g>
    </g>
  </g>
</svg>
